<svg width="800" height="450" viewBox="0 0 800 450" fill="none" xmlns="http://www.w3.org/2000/svg">
  <rect width="800" height="450" fill="#374151"/>
  <g opacity="0.5">
    <path d="M400 150C425.405 150 450.194 160.097 468.934 178.837C487.675 197.577 497.772 222.366 497.772 247.771C497.772 273.177 487.675 297.966 468.934 316.706C450.194 335.446 425.405 345.543 400 345.543C374.595 345.543 349.806 335.446 331.066 316.706C312.325 297.966 302.228 273.177 302.228 247.771C302.228 222.366 312.325 197.577 331.066 178.837C349.806 160.097 374.595 150 400 150ZM400 180C381.435 180 363.631 187.386 350.503 200.514C337.375 213.642 330 231.446 330 250.011C330 268.576 337.375 286.38 350.503 299.508C363.631 312.636 381.435 320.022 400 320.022C418.565 320.022 436.369 312.636 449.497 299.508C462.625 286.38 470 268.576 470 250.011C470 231.446 462.625 213.642 449.497 200.514C436.369 187.386 418.565 180 400 180Z" fill="#6B7280"/>
    <path d="M340 220L460 340M460 220L340 340" stroke="#6B7280" stroke-width="3" stroke-linecap="round"/>
  </g>
  <text x="400" y="400" text-anchor="middle" fill="#9CA3AF" font-family="Inter, sans-serif" font-size="16">
    Blog Image
  </text>
</svg>